<svg xmlns="http://www.w3.org/2000/svg" width="200" height="200" viewBox="0 0 200 200"><defs><linearGradient id="bg" x1="0" y1="0" x2="1" y2="1"><stop offset="0%" stop-color="hsl(201 70% 92%)"/><stop offset="100%" stop-color="hsl(236 65% 85%)"/></linearGradient></defs><rect width="200" height="200" rx="24" fill="url(#bg)"/><ellipse cx="100" cy="210" rx="72" ry="46" fill="#0ea5e9"/><rect x="58" y="168" width="84" height="40" rx="18" fill="#0ea5e9"/><rect x="90" y="146" width="20" height="30" rx="8" fill="#8d5524"/><rect x="53" y="72" width="94" height="110" rx="49" fill="#8d5524"/><path d="M53 100 C63 23, 137 23, 147 100 L147 82 C135 19, 65 19, 53 82 Z" fill="#5a3d2b"/><circle cx="79" cy="121" r="5" fill="#334155"/><circle cx="121" cy="121" r="5" fill="#334155"/><path d="M69 112 Q79 104 89 112" stroke="#5a3d2b" stroke-width="3" fill="none" stroke-linecap="round"/><path d="M111 110 Q121 106 131 110" stroke="#5a3d2b" stroke-width="3" fill="none" stroke-linecap="round"/><path d="M100 131 q1 10 0 20" stroke="#8b5e3c" stroke-width="3" fill="none" stroke-linecap="round"/><path d="M89.5 155 Q100 164 110.5 155" stroke="#7f1d1d" stroke-width="3" fill="none" stroke-linecap="round"/><circle cx="64" cy="130" r="6" fill="#f2b2a8" opacity="0.45"/><circle cx="136" cy="130" r="6" fill="#f2b2a8" opacity="0.45"/></svg>