<svg xmlns="http://www.w3.org/2000/svg" width="200" height="200" viewBox="0 0 200 200"><defs><linearGradient id="bg" x1="0" y1="0" x2="1" y2="1"><stop offset="0%" stop-color="hsl(272 70% 92%)"/><stop offset="100%" stop-color="hsl(307 65% 85%)"/></linearGradient></defs><rect width="200" height="200" rx="24" fill="url(#bg)"/><ellipse cx="100" cy="210" rx="72" ry="46" fill="#ef4444"/><rect x="58" y="168" width="84" height="40" rx="18" fill="#ef4444"/><rect x="90" y="146" width="20" height="30" rx="8" fill="#c68642"/><rect x="54" y="72" width="92" height="116" rx="44" fill="#c68642"/><path d="M54 100 C64 24, 136 24, 146 100 L146 82 C134 20, 66 20, 54 82 Z" fill="#d6b370"/><circle cx="80" cy="120" r="5" fill="#0f172a"/><circle cx="120" cy="120" r="5" fill="#0f172a"/><path d="M70 109 Q80 105 90 109" stroke="#d6b370" stroke-width="3" fill="none" stroke-linecap="round"/><path d="M110 111 Q120 103 130 111" stroke="#d6b370" stroke-width="3" fill="none" stroke-linecap="round"/><path d="M100 129 q-1 10 0 20" stroke="#8b5e3c" stroke-width="3" fill="none" stroke-linecap="round"/><path d="M88 150 Q100 158 112 150" stroke="#7f1d1d" stroke-width="3" fill="none" stroke-linecap="round"/><circle cx="64" cy="130" r="6" fill="#f2b2a8" opacity="0.45"/><circle cx="136" cy="130" r="6" fill="#f2b2a8" opacity="0.45"/></svg>