<svg xmlns="http://www.w3.org/2000/svg" width="200" height="200" viewBox="0 0 200 200"><defs><linearGradient id="bg" x1="0" y1="0" x2="1" y2="1"><stop offset="0%" stop-color="hsl(181 70% 92%)"/><stop offset="100%" stop-color="hsl(216 65% 85%)"/></linearGradient></defs><rect width="200" height="200" rx="24" fill="url(#bg)"/><ellipse cx="100" cy="210" rx="72" ry="46" fill="#7c3aed"/><rect x="58" y="168" width="84" height="40" rx="18" fill="#7c3aed"/><rect x="90" y="146" width="20" height="30" rx="8" fill="#e0ac69"/><rect x="52.5" y="72" width="95" height="113" rx="45" fill="#e0ac69"/><path d="M52.5 100 C62.5 31, 137.5 31, 147.5 100 L147.5 82 C135.5 27, 64.5 27, 52.5 82 Z" fill="#a55728"/><circle cx="79" cy="119" r="5" fill="#334155"/><circle cx="121" cy="119" r="5" fill="#334155"/><path d="M69 110 Q79 102 89 110" stroke="#a55728" stroke-width="3" fill="none" stroke-linecap="round"/><path d="M111 108 Q121 104 131 108" stroke="#a55728" stroke-width="3" fill="none" stroke-linecap="round"/><path d="M100 131 q1 10 0 20" stroke="#8b5e3c" stroke-width="3" fill="none" stroke-linecap="round"/><path d="M89.5 151 Q100 158 110.5 151" stroke="#7f1d1d" stroke-width="3" fill="none" stroke-linecap="round"/><circle cx="64" cy="130" r="6" fill="#f2b2a8" opacity="0.45"/><circle cx="136" cy="130" r="6" fill="#f2b2a8" opacity="0.45"/></svg>