<svg xmlns="http://www.w3.org/2000/svg" width="200" height="200" viewBox="0 0 200 200"><defs><linearGradient id="bg" x1="0" y1="0" x2="1" y2="1"><stop offset="0%" stop-color="hsl(144 70% 92%)"/><stop offset="100%" stop-color="hsl(179 65% 85%)"/></linearGradient></defs><rect width="200" height="200" rx="24" fill="url(#bg)"/><ellipse cx="100" cy="210" rx="72" ry="46" fill="#ef4444"/><rect x="58" y="168" width="84" height="40" rx="18" fill="#ef4444"/><rect x="90" y="146" width="20" height="30" rx="8" fill="#f1c27d"/><rect x="53" y="72" width="94" height="110" rx="44" fill="#f1c27d"/><path d="M53 100 C63 32, 137 32, 147 100 L147 82 C135 28, 65 28, 53 82 Z" fill="#6b4423"/><circle cx="80" cy="118" r="5" fill="#0f172a"/><circle cx="120" cy="118" r="5" fill="#0f172a"/><path d="M70 108 Q80 102 90 108" stroke="#6b4423" stroke-width="3" fill="none" stroke-linecap="round"/><path d="M110 108 Q120 102 130 108" stroke="#6b4423" stroke-width="3" fill="none" stroke-linecap="round"/><path d="M100 130 q0 10 0 20" stroke="#8b5e3c" stroke-width="3" fill="none" stroke-linecap="round"/><path d="M90 150 Q100 156 110 150" stroke="#7f1d1d" stroke-width="3" fill="none" stroke-linecap="round"/><circle cx="64" cy="130" r="6" fill="#f2b2a8" opacity="0.45"/><circle cx="136" cy="130" r="6" fill="#f2b2a8" opacity="0.45"/></svg>