<svg xmlns="http://www.w3.org/2000/svg" width="200" height="200" viewBox="0 0 200 200"><defs><linearGradient id="bg" x1="0" y1="0" x2="1" y2="1"><stop offset="0%" stop-color="hsl(225 70% 92%)"/><stop offset="100%" stop-color="hsl(260 65% 85%)"/></linearGradient></defs><rect width="200" height="200" rx="24" fill="url(#bg)"/><ellipse cx="100" cy="210" rx="72" ry="46" fill="#0ea5e9"/><rect x="58" y="168" width="84" height="40" rx="18" fill="#0ea5e9"/><rect x="90" y="146" width="20" height="30" rx="8" fill="#8d5524"/><rect x="52.5" y="72" width="95" height="110" rx="49" fill="#8d5524"/><path d="M52.5 100 C62.5 23, 137.5 23, 147.5 100 L147.5 82 C135.5 19, 64.5 19, 52.5 82 Z" fill="#5a3d2b"/><circle cx="79" cy="121" r="5" fill="#334155"/><circle cx="121" cy="121" r="5" fill="#334155"/><path d="M69 109 Q79 107 89 109" stroke="#5a3d2b" stroke-width="3" fill="none" stroke-linecap="round"/><path d="M111 113 Q121 103 131 113" stroke="#5a3d2b" stroke-width="3" fill="none" stroke-linecap="round"/><path d="M100 128 q-2 10 0 20" stroke="#8b5e3c" stroke-width="3" fill="none" stroke-linecap="round"/><path d="M88.5 155 Q100 164 111.5 155" stroke="#7f1d1d" stroke-width="3" fill="none" stroke-linecap="round"/><circle cx="64" cy="130" r="6" fill="#f2b2a8" opacity="0.45"/><circle cx="136" cy="130" r="6" fill="#f2b2a8" opacity="0.45"/></svg>