<svg xmlns="http://www.w3.org/2000/svg" width="200" height="200" viewBox="0 0 200 200"><defs><linearGradient id="bg" x1="0" y1="0" x2="1" y2="1"><stop offset="0%" stop-color="hsl(40 70% 92%)"/><stop offset="100%" stop-color="hsl(75 65% 85%)"/></linearGradient></defs><rect width="200" height="200" rx="24" fill="url(#bg)"/><ellipse cx="100" cy="210" rx="72" ry="46" fill="#ef4444"/><rect x="58" y="168" width="84" height="40" rx="18" fill="#ef4444"/><rect x="90" y="146" width="20" height="30" rx="8" fill="#ffdbac"/><rect x="51.5" y="72" width="97" height="113" rx="44" fill="#ffdbac"/><path d="M51.5 100 C61.5 28, 138.5 28, 148.5 100 L148.5 82 C136.5 24, 63.5 24, 51.5 82 Z" fill="#1c1c1c"/><circle cx="80" cy="122" r="5" fill="#0f172a"/><circle cx="120" cy="122" r="5" fill="#0f172a"/><path d="M70 110 Q80 108 90 110" stroke="#1c1c1c" stroke-width="3" fill="none" stroke-linecap="round"/><path d="M110 114 Q120 104 130 114" stroke="#1c1c1c" stroke-width="3" fill="none" stroke-linecap="round"/><path d="M100 128 q-2 10 0 20" stroke="#8b5e3c" stroke-width="3" fill="none" stroke-linecap="round"/><path d="M91 150 Q100 160 109 150" stroke="#7f1d1d" stroke-width="3" fill="none" stroke-linecap="round"/><circle cx="64" cy="130" r="6" fill="#f2b2a8" opacity="0.45"/><circle cx="136" cy="130" r="6" fill="#f2b2a8" opacity="0.45"/></svg>