<svg xmlns="http://www.w3.org/2000/svg" width="200" height="200" viewBox="0 0 200 200"><defs><linearGradient id="bg" x1="0" y1="0" x2="1" y2="1"><stop offset="0%" stop-color="hsl(262 70% 92%)"/><stop offset="100%" stop-color="hsl(297 65% 85%)"/></linearGradient></defs><rect width="200" height="200" rx="24" fill="url(#bg)"/><ellipse cx="100" cy="210" rx="72" ry="46" fill="#10b981"/><rect x="58" y="168" width="84" height="40" rx="18" fill="#10b981"/><rect x="90" y="146" width="20" height="30" rx="8" fill="#ffdbac"/><rect x="52" y="72" width="96" height="113" rx="50" fill="#ffdbac"/><path d="M52 100 C62 22, 138 22, 148 100 L148 82 C136 18, 64 18, 52 82 Z" fill="#1c1c1c"/><circle cx="78" cy="122" r="5" fill="#111827"/><circle cx="122" cy="122" r="5" fill="#111827"/><path d="M68 111 Q78 107 88 111" stroke="#1c1c1c" stroke-width="3" fill="none" stroke-linecap="round"/><path d="M112 113 Q122 105 132 113" stroke="#1c1c1c" stroke-width="3" fill="none" stroke-linecap="round"/><path d="M100 129 q-1 10 0 20" stroke="#8b5e3c" stroke-width="3" fill="none" stroke-linecap="round"/><path d="M88 156 Q100 166 112 156" stroke="#7f1d1d" stroke-width="3" fill="none" stroke-linecap="round"/><circle cx="64" cy="130" r="6" fill="#f2b2a8" opacity="0.45"/><circle cx="136" cy="130" r="6" fill="#f2b2a8" opacity="0.45"/></svg>