<svg xmlns="http://www.w3.org/2000/svg" width="200" height="200" viewBox="0 0 200 200"><defs><linearGradient id="bg" x1="0" y1="0" x2="1" y2="1"><stop offset="0%" stop-color="hsl(53 70% 92%)"/><stop offset="100%" stop-color="hsl(88 65% 85%)"/></linearGradient></defs><rect width="200" height="200" rx="24" fill="url(#bg)"/><ellipse cx="100" cy="210" rx="72" ry="46" fill="#7c3aed"/><rect x="58" y="168" width="84" height="40" rx="18" fill="#7c3aed"/><rect x="90" y="146" width="20" height="30" rx="8" fill="#d1a17a"/><rect x="51.5" y="72" width="97" height="116" rx="45" fill="#d1a17a"/><path d="M51.5 100 C61.5 27, 138.5 27, 148.5 100 L148.5 82 C136.5 23, 63.5 23, 51.5 82 Z" fill="#3b2f2f"/><circle cx="79" cy="123" r="5" fill="#334155"/><circle cx="121" cy="123" r="5" fill="#334155"/><path d="M69 115 Q79 105 89 115" stroke="#3b2f2f" stroke-width="3" fill="none" stroke-linecap="round"/><path d="M111 111 Q121 109 131 111" stroke="#3b2f2f" stroke-width="3" fill="none" stroke-linecap="round"/><path d="M100 132 q2 10 0 20" stroke="#8b5e3c" stroke-width="3" fill="none" stroke-linecap="round"/><path d="M86.5 151 Q100 162 113.5 151" stroke="#7f1d1d" stroke-width="3" fill="none" stroke-linecap="round"/><circle cx="64" cy="130" r="6" fill="#f2b2a8" opacity="0.45"/><circle cx="136" cy="130" r="6" fill="#f2b2a8" opacity="0.45"/></svg>