<svg xmlns="http://www.w3.org/2000/svg" width="200" height="200" viewBox="0 0 200 200"><defs><linearGradient id="bg" x1="0" y1="0" x2="1" y2="1"><stop offset="0%" stop-color="hsl(316 70% 92%)"/><stop offset="100%" stop-color="hsl(351 65% 85%)"/></linearGradient></defs><rect width="200" height="200" rx="24" fill="url(#bg)"/><ellipse cx="100" cy="210" rx="72" ry="46" fill="#4f46e5"/><rect x="58" y="168" width="84" height="40" rx="18" fill="#4f46e5"/><rect x="90" y="146" width="20" height="30" rx="8" fill="#ffdbac"/><rect x="54" y="72" width="92" height="113" rx="48" fill="#ffdbac"/><path d="M54 100 C64 28, 136 28, 146 100 L146 82 C134 24, 66 24, 54 82 Z" fill="#1c1c1c"/><circle cx="80" cy="122" r="5" fill="#0f172a"/><circle cx="120" cy="122" r="5" fill="#0f172a"/><path d="M70 113 Q80 105 90 113" stroke="#1c1c1c" stroke-width="3" fill="none" stroke-linecap="round"/><path d="M110 111 Q120 107 130 111" stroke="#1c1c1c" stroke-width="3" fill="none" stroke-linecap="round"/><path d="M100 131 q1 10 0 20" stroke="#8b5e3c" stroke-width="3" fill="none" stroke-linecap="round"/><path d="M87 154 Q100 164 113 154" stroke="#7f1d1d" stroke-width="3" fill="none" stroke-linecap="round"/><circle cx="64" cy="130" r="6" fill="#f2b2a8" opacity="0.45"/><circle cx="136" cy="130" r="6" fill="#f2b2a8" opacity="0.45"/></svg>