<svg xmlns="http://www.w3.org/2000/svg" width="200" height="200" viewBox="0 0 200 200"><defs><linearGradient id="bg" x1="0" y1="0" x2="1" y2="1"><stop offset="0%" stop-color="hsl(198 70% 92%)"/><stop offset="100%" stop-color="hsl(233 65% 85%)"/></linearGradient></defs><rect width="200" height="200" rx="24" fill="url(#bg)"/><ellipse cx="100" cy="210" rx="72" ry="46" fill="#10b981"/><rect x="58" y="168" width="84" height="40" rx="18" fill="#10b981"/><rect x="90" y="146" width="20" height="30" rx="8" fill="#f1c27d"/><rect x="51.5" y="72" width="97" height="110" rx="50" fill="#f1c27d"/><path d="M51.5 100 C61.5 26, 138.5 26, 148.5 100 L148.5 82 C136.5 22, 63.5 22, 51.5 82 Z" fill="#6b4423"/><circle cx="78" cy="118" r="5" fill="#111827"/><circle cx="122" cy="118" r="5" fill="#111827"/><path d="M68 110 Q78 100 88 110" stroke="#6b4423" stroke-width="3" fill="none" stroke-linecap="round"/><path d="M112 106 Q122 104 132 106" stroke="#6b4423" stroke-width="3" fill="none" stroke-linecap="round"/><path d="M100 132 q2 10 0 20" stroke="#8b5e3c" stroke-width="3" fill="none" stroke-linecap="round"/><path d="M89 156 Q100 162 111 156" stroke="#7f1d1d" stroke-width="3" fill="none" stroke-linecap="round"/><circle cx="64" cy="130" r="6" fill="#f2b2a8" opacity="0.45"/><circle cx="136" cy="130" r="6" fill="#f2b2a8" opacity="0.45"/></svg>