<svg xmlns="http://www.w3.org/2000/svg" width="200" height="200" viewBox="0 0 200 200"><defs><linearGradient id="bg" x1="0" y1="0" x2="1" y2="1"><stop offset="0%" stop-color="hsl(218 70% 92%)"/><stop offset="100%" stop-color="hsl(253 65% 85%)"/></linearGradient></defs><rect width="200" height="200" rx="24" fill="url(#bg)"/><ellipse cx="100" cy="210" rx="72" ry="46" fill="#14b8a6"/><rect x="58" y="168" width="84" height="40" rx="18" fill="#14b8a6"/><rect x="90" y="146" width="20" height="30" rx="8" fill="#c68642"/><rect x="52" y="72" width="96" height="116" rx="46" fill="#c68642"/><path d="M52 100 C62 30, 138 30, 148 100 L148 82 C136 26, 64 26, 52 82 Z" fill="#d6b370"/><circle cx="78" cy="120" r="5" fill="#111827"/><circle cx="122" cy="120" r="5" fill="#111827"/><path d="M68 112 Q78 102 88 112" stroke="#d6b370" stroke-width="3" fill="none" stroke-linecap="round"/><path d="M112 108 Q122 106 132 108" stroke="#d6b370" stroke-width="3" fill="none" stroke-linecap="round"/><path d="M100 132 q2 10 0 20" stroke="#8b5e3c" stroke-width="3" fill="none" stroke-linecap="round"/><path d="M89 152 Q100 160 111 152" stroke="#7f1d1d" stroke-width="3" fill="none" stroke-linecap="round"/><circle cx="64" cy="130" r="6" fill="#f2b2a8" opacity="0.45"/><circle cx="136" cy="130" r="6" fill="#f2b2a8" opacity="0.45"/></svg>