<svg xmlns="http://www.w3.org/2000/svg" width="200" height="200" viewBox="0 0 200 200"><defs><linearGradient id="bg" x1="0" y1="0" x2="1" y2="1"><stop offset="0%" stop-color="hsl(23 70% 92%)"/><stop offset="100%" stop-color="hsl(58 65% 85%)"/></linearGradient></defs><rect width="200" height="200" rx="24" fill="url(#bg)"/><ellipse cx="100" cy="210" rx="72" ry="46" fill="#e11d48"/><rect x="58" y="168" width="84" height="40" rx="18" fill="#e11d48"/><rect x="90" y="146" width="20" height="30" rx="8" fill="#d1a17a"/><rect x="52.5" y="72" width="95" height="116" rx="47" fill="#d1a17a"/><path d="M52.5 100 C62.5 21, 137.5 21, 147.5 100 L147.5 82 C135.5 17, 64.5 17, 52.5 82 Z" fill="#3b2f2f"/><circle cx="77" cy="123" r="5" fill="#1f2937"/><circle cx="123" cy="123" r="5" fill="#1f2937"/><path d="M67 115 Q77 105 87 115" stroke="#3b2f2f" stroke-width="3" fill="none" stroke-linecap="round"/><path d="M113 111 Q123 109 133 111" stroke="#3b2f2f" stroke-width="3" fill="none" stroke-linecap="round"/><path d="M100 132 q2 10 0 20" stroke="#8b5e3c" stroke-width="3" fill="none" stroke-linecap="round"/><path d="M86.5 153 Q100 164 113.5 153" stroke="#7f1d1d" stroke-width="3" fill="none" stroke-linecap="round"/><circle cx="64" cy="130" r="6" fill="#f2b2a8" opacity="0.45"/><circle cx="136" cy="130" r="6" fill="#f2b2a8" opacity="0.45"/></svg>