<svg xmlns="http://www.w3.org/2000/svg" width="200" height="200" viewBox="0 0 200 200"><defs><linearGradient id="bg" x1="0" y1="0" x2="1" y2="1"><stop offset="0%" stop-color="hsl(336 70% 92%)"/><stop offset="100%" stop-color="hsl(11 65% 85%)"/></linearGradient></defs><rect width="200" height="200" rx="24" fill="url(#bg)"/><ellipse cx="100" cy="210" rx="72" ry="46" fill="#ef4444"/><rect x="58" y="168" width="84" height="40" rx="18" fill="#ef4444"/><rect x="90" y="146" width="20" height="30" rx="8" fill="#f1c27d"/><rect x="51" y="72" width="98" height="110" rx="44" fill="#f1c27d"/><path d="M51 100 C61 32, 139 32, 149 100 L149 82 C137 28, 63 28, 51 82 Z" fill="#6b4423"/><circle cx="80" cy="118" r="5" fill="#0f172a"/><circle cx="120" cy="118" r="5" fill="#0f172a"/><path d="M70 109 Q80 101 90 109" stroke="#6b4423" stroke-width="3" fill="none" stroke-linecap="round"/><path d="M110 107 Q120 103 130 107" stroke="#6b4423" stroke-width="3" fill="none" stroke-linecap="round"/><path d="M100 131 q1 10 0 20" stroke="#8b5e3c" stroke-width="3" fill="none" stroke-linecap="round"/><path d="M87 150 Q100 156 113 150" stroke="#7f1d1d" stroke-width="3" fill="none" stroke-linecap="round"/><circle cx="64" cy="130" r="6" fill="#f2b2a8" opacity="0.45"/><circle cx="136" cy="130" r="6" fill="#f2b2a8" opacity="0.45"/></svg>