<svg xmlns="http://www.w3.org/2000/svg" width="200" height="200" viewBox="0 0 200 200"><defs><linearGradient id="bg" x1="0" y1="0" x2="1" y2="1"><stop offset="0%" stop-color="hsl(164 70% 92%)"/><stop offset="100%" stop-color="hsl(199 65% 85%)"/></linearGradient></defs><rect width="200" height="200" rx="24" fill="url(#bg)"/><ellipse cx="100" cy="210" rx="72" ry="46" fill="#4f46e5"/><rect x="58" y="168" width="84" height="40" rx="18" fill="#4f46e5"/><rect x="90" y="146" width="20" height="30" rx="8" fill="#c68642"/><rect x="53.5" y="72" width="93" height="116" rx="48" fill="#c68642"/><path d="M53.5 100 C63.5 24, 136.5 24, 146.5 100 L146.5 82 C134.5 20, 65.5 20, 53.5 82 Z" fill="#d6b370"/><circle cx="80" cy="120" r="5" fill="#0f172a"/><circle cx="120" cy="120" r="5" fill="#0f172a"/><path d="M70 110 Q80 104 90 110" stroke="#d6b370" stroke-width="3" fill="none" stroke-linecap="round"/><path d="M110 110 Q120 104 130 110" stroke="#d6b370" stroke-width="3" fill="none" stroke-linecap="round"/><path d="M100 130 q0 10 0 20" stroke="#8b5e3c" stroke-width="3" fill="none" stroke-linecap="round"/><path d="M90 154 Q100 162 110 154" stroke="#7f1d1d" stroke-width="3" fill="none" stroke-linecap="round"/><circle cx="64" cy="130" r="6" fill="#f2b2a8" opacity="0.45"/><circle cx="136" cy="130" r="6" fill="#f2b2a8" opacity="0.45"/></svg>