<svg xmlns="http://www.w3.org/2000/svg" width="200" height="200" viewBox="0 0 200 200"><defs><linearGradient id="bg" x1="0" y1="0" x2="1" y2="1"><stop offset="0%" stop-color="hsl(171 70% 92%)"/><stop offset="100%" stop-color="hsl(206 65% 85%)"/></linearGradient></defs><rect width="200" height="200" rx="24" fill="url(#bg)"/><ellipse cx="100" cy="210" rx="72" ry="46" fill="#f97316"/><rect x="58" y="168" width="84" height="40" rx="18" fill="#f97316"/><rect x="90" y="146" width="20" height="30" rx="8" fill="#8d5524"/><rect x="54" y="72" width="92" height="110" rx="51" fill="#8d5524"/><path d="M54 100 C64 29, 136 29, 146 100 L146 82 C134 25, 66 25, 54 82 Z" fill="#5a3d2b"/><circle cx="77" cy="121" r="5" fill="#1f2937"/><circle cx="123" cy="121" r="5" fill="#1f2937"/><path d="M67 112 Q77 104 87 112" stroke="#5a3d2b" stroke-width="3" fill="none" stroke-linecap="round"/><path d="M113 110 Q123 106 133 110" stroke="#5a3d2b" stroke-width="3" fill="none" stroke-linecap="round"/><path d="M100 131 q1 10 0 20" stroke="#8b5e3c" stroke-width="3" fill="none" stroke-linecap="round"/><path d="M89.5 157 Q100 166 110.5 157" stroke="#7f1d1d" stroke-width="3" fill="none" stroke-linecap="round"/><circle cx="64" cy="130" r="6" fill="#f2b2a8" opacity="0.45"/><circle cx="136" cy="130" r="6" fill="#f2b2a8" opacity="0.45"/></svg>