<svg xmlns="http://www.w3.org/2000/svg" width="200" height="200" viewBox="0 0 200 200"><defs><linearGradient id="bg" x1="0" y1="0" x2="1" y2="1"><stop offset="0%" stop-color="hsl(127 70% 92%)"/><stop offset="100%" stop-color="hsl(162 65% 85%)"/></linearGradient></defs><rect width="200" height="200" rx="24" fill="url(#bg)"/><ellipse cx="100" cy="210" rx="72" ry="46" fill="#e11d48"/><rect x="58" y="168" width="84" height="40" rx="18" fill="#e11d48"/><rect x="90" y="146" width="20" height="30" rx="8" fill="#e0ac69"/><rect x="54" y="72" width="92" height="113" rx="47" fill="#e0ac69"/><path d="M54 100 C64 25, 136 25, 146 100 L146 82 C134 21, 66 21, 54 82 Z" fill="#a55728"/><circle cx="77" cy="119" r="5" fill="#1f2937"/><circle cx="123" cy="119" r="5" fill="#1f2937"/><path d="M67 108 Q77 104 87 108" stroke="#a55728" stroke-width="3" fill="none" stroke-linecap="round"/><path d="M113 110 Q123 102 133 110" stroke="#a55728" stroke-width="3" fill="none" stroke-linecap="round"/><path d="M100 129 q-1 10 0 20" stroke="#8b5e3c" stroke-width="3" fill="none" stroke-linecap="round"/><path d="M90.5 153 Q100 160 109.5 153" stroke="#7f1d1d" stroke-width="3" fill="none" stroke-linecap="round"/><circle cx="64" cy="130" r="6" fill="#f2b2a8" opacity="0.45"/><circle cx="136" cy="130" r="6" fill="#f2b2a8" opacity="0.45"/></svg>